<?xml version="1.0" encoding="UTF-8"?>
<!DOCTYPE svg PUBLIC "-//W3C//DTD SVG 1.1//EN" "http://www.w3.org/Graphics/SVG/1.1/DTD/svg11.dtd">
<svg version="1.1" xmlns="http://www.w3.org/2000/svg" xmlns:xlink="http://www.w3.org/1999/xlink" x="0" y="0" width="512" height="512" viewBox="0, 0, 512, 512">
  <g id="azul">
    <path d="M0,64 L512,64 L512,448 L0,448 L0,64 z" fill="#002169"/>
    <path d="M54.697,64 L512,407.11 L512,447.753 L491.561,474.995 L0,106.181 L0,64 L54.697,64 z" fill="#FFFFFF"/>
    <path d="M512,64 L512,104.6 L52.451,448 L0,448 L0,403.406 L454.203,64 L512,64 z" fill="#FFFFFF"/>
    <path d="M232,64 L280,64 L280,448 L232,448 L232,64 z" fill="#C8112E"/>
    <path d="M0,216 L512,216 L512,296 L0,296 L0,216 z" fill="#C8112E"/>
    <path d="M0,66.354 L172.996,196.716 L160.239,213.646 L0.55,93.311 L0,66.354 z" fill="#C8112E"/>
    <path d="M202.003,296 L214.76,312.93 L35.516,448 L0.292,448 L202.003,296 z" fill="#C8112E"/>
    <path d="M0,216 L0,191.79 L212.917,191.79 L212.917,64 L232,64 L232,216 L0,216 z" fill="#FFFFFF"/>
    <path d="M232,296 L232,320 L232,320 L232,448 L214.76,448 L214.76,320 L0,320 L0,296 L232,296 z" fill="#FFFFFF"/>
    <path d="M512,64 L512,64.897 L318.443,210.753 L304,191.585 L473.311,64 L512,64 z" fill="#C8112E"/>
    <path d="M280,216 L280,64 L298,64 L298,192 L512,192 L512,216 L280,216 z" fill="#FFFFFF"/>
    <path d="M349.789,298.535 L512,421.873 L512,449.357 L336.547,315.951 L349.789,298.535 z" fill="#C8112E"/>
    <path d="M280,296 L512,296 L512,319.98 L301,319.98 L301,448 L280,448 L280,296 z" fill="#FFFFFF"/>
  </g>
</svg>
