<?xml version="1.0" encoding="UTF-8"?>
<!DOCTYPE svg PUBLIC "-//W3C//DTD SVG 1.1//EN" "http://www.w3.org/Graphics/SVG/1.1/DTD/svg11.dtd">
<svg version="1.1" xmlns="http://www.w3.org/2000/svg" xmlns:xlink="http://www.w3.org/1999/xlink" x="0" y="0" width="512" height="512" viewBox="0, 0, 512, 512">
  <g id="gantry">
    <g>
      <path d="M368.5,64.5 C371.574,64.5 384.5,77.692 384.5,80.5 L384.5,436.5 C384.5,439.308 375.574,464.5 372.5,464.5 L140.5,464.5 C137.426,464.5 128.5,439.308 128.5,436.5 L128.5,80.5 C128.5,77.692 141.426,64.5 144.5,64.5 L368.5,64.5 z M256.5,165.48 C202.928,165.48 159.5,208.057 159.5,260.578 C159.5,313.1 202.928,355.676 256.5,355.676 C310.072,355.676 353.5,313.1 353.5,260.578 C353.5,208.057 310.072,165.48 256.5,165.48 z" fill="#FFFFFF"/>
      <path d="M368.5,64.5 C371.574,64.5 384.5,77.692 384.5,80.5 L384.5,436.5 C384.5,439.308 375.574,464.5 372.5,464.5 L140.5,464.5 C137.426,464.5 128.5,439.308 128.5,436.5 L128.5,80.5 C128.5,77.692 141.426,64.5 144.5,64.5 L368.5,64.5 z M256.5,165.48 C202.928,165.48 159.5,208.057 159.5,260.578 C159.5,313.1 202.928,355.676 256.5,355.676 C310.072,355.676 353.5,313.1 353.5,260.578 C353.5,208.057 310.072,165.48 256.5,165.48 z" fill-opacity="0" stroke="#000000" stroke-width="2"/>
    </g>
  </g>
  <g id="Cabezales">
    <g>
      <path d="M163.662,356.5 C164.887,352.79 165.942,346.953 169.534,344.379 L343.465,344.379 C347.101,347.353 348.168,352.395 349.338,356.5 L163.662,356.5 z" fill="#7686B3"/>
      <path d="M163.662,356.5 C164.887,352.79 165.942,346.953 169.534,344.379 L343.465,344.379 C347.101,347.353 348.168,352.395 349.338,356.5 L163.662,356.5 z" fill-opacity="0" stroke="#000000" stroke-width="2"/>
    </g>
    <g>
      <path d="M169.534,440.5 C166.764,440.5 162.845,436.95 159.5,392.015 C159.771,379.869 160.292,367.481 163.662,355.652 L349.338,355.652 C352.517,367.537 353.344,379.826 353.5,392.015 C350.155,436.95 346.236,440.5 343.466,440.5 L169.534,440.5 z" fill="#FFFFFF"/>
      <path d="M169.534,440.5 C166.764,440.5 162.845,436.95 159.5,392.015 C159.771,379.869 160.292,367.481 163.662,355.652 L349.338,355.652 C352.517,367.537 353.344,379.826 353.5,392.015 C350.155,436.95 346.236,440.5 343.466,440.5 L169.534,440.5 z" fill-opacity="0" stroke="#000000" stroke-width="2"/>
    </g>
    <g>
      <path d="M343.466,71.53 C346.236,71.53 350.155,75.08 353.5,120.015 C353.228,132.161 352.708,144.549 349.338,156.379 L163.662,156.379 C160.483,144.493 159.656,132.204 159.5,120.015 C162.845,75.08 166.764,71.53 169.534,71.53 L343.466,71.53 z" fill="#FFFFFF"/>
      <path d="M343.466,71.53 C346.236,71.53 350.155,75.08 353.5,120.015 C353.228,132.161 352.708,144.549 349.338,156.379 L163.662,156.379 C160.483,144.493 159.656,132.204 159.5,120.015 C162.845,75.08 166.764,71.53 169.534,71.53 L343.466,71.53 z" fill-opacity="0" stroke="#000000" stroke-width="2"/>
    </g>
    <g>
      <path d="M349.338,156.379 C348.113,160.089 347.058,165.925 343.466,168.5 L169.535,168.5 C165.899,165.526 164.832,160.484 163.662,156.379 L349.338,156.379 z" fill="#7686B3"/>
      <path d="M349.338,156.379 C348.113,160.089 347.058,165.925 343.466,168.5 L169.535,168.5 C165.899,165.526 164.832,160.484 163.662,156.379 L349.338,156.379 z" fill-opacity="0" stroke="#000000" stroke-width="2"/>
    </g>
  </g>
  <g id="base">
    <g>
      <path d="M196.5,404.5 L316.5,404.5 L316.5,468.5 L196.5,468.5 L196.5,404.5 z" fill="#FFFFFF"/>
      <path d="M196.5,404.5 L316.5,404.5 L316.5,468.5 L196.5,468.5 L196.5,404.5 z" fill-opacity="0" stroke="#000000" stroke-width="1"/>
    </g>
    <g>
      <path d="M200.5,468.5 L212.5,468.5 L212.5,472.5 L200.5,472.5 L200.5,468.5 z" fill="#515151"/>
      <path d="M200.5,468.5 L212.5,468.5 L212.5,472.5 L200.5,472.5 L200.5,468.5 z" fill-opacity="0" stroke="#000000" stroke-width="1"/>
    </g>
    <g>
      <path d="M300.5,468.5 L312.5,468.5 L312.5,472.5 L300.5,472.5 L300.5,468.5 z" fill="#515151"/>
      <path d="M300.5,468.5 L312.5,468.5 L312.5,472.5 L300.5,472.5 L300.5,468.5 z" fill-opacity="0" stroke="#000000" stroke-width="1"/>
    </g>
  </g>
  <g id="camilla">
    <g>
      <g id="paciente"  transform-origin="256 322">
        <g>
          <path d="M202.332,291.944 C202.332,291.944 222.288,281.793 256.5,281.793 C290.712,281.793 310.668,291.944 310.668,291.944 C321.69,291.944 330.625,299.897 330.625,309.707 L330.625,309.707 C330.625,319.518 321.69,327.471 310.668,327.471 C310.668,327.471 290.712,335.06 256.5,331.266 C222.288,332.546 202.332,327.471 202.332,327.471 C191.31,327.471 182.375,319.518 182.375,309.707 L182.375,309.707 C182.375,299.897 191.31,291.944 202.332,291.944 z" fill="#FFEE91"/>
          <path d="M202.332,291.944 C202.332,291.944 222.288,281.793 256.5,281.793 C290.712,281.793 310.668,291.944 310.668,291.944 C321.69,291.944 330.625,299.897 330.625,309.707 L330.625,309.707 C330.625,319.518 321.69,327.471 310.668,327.471 C310.668,327.471 290.712,335.06 256.5,331.266 C222.288,332.546 202.332,327.471 202.332,327.471 C191.31,327.471 182.375,319.518 182.375,309.707 L182.375,309.707 C182.375,299.897 191.31,291.944 202.332,291.944 z" fill-opacity="0" stroke="#827100" stroke-width="2"/>
        </g>
        <g>
          <path d="M256.5,332.328 C243.416,332.328 232.81,319.831 232.81,304.414 C232.81,288.998 243.416,276.5 256.5,276.5 C269.584,276.5 280.19,288.998 280.19,304.414 C280.19,319.831 269.584,332.328 256.5,332.328 z" fill="#FFEE91"/>
          <path d="M256.5,332.328 C243.416,332.328 232.81,319.831 232.81,304.414 C232.81,288.998 243.416,276.5 256.5,276.5 C269.584,276.5 280.19,288.998 280.19,304.414 C280.19,319.831 269.584,332.328 256.5,332.328 z" fill-opacity="0" stroke="#827100" stroke-width="2"/>
        </g>
      </g>
      <g>
        <path d="M179.274,340.5 L333.726,340.5 C337.467,340.5 340.5,343.058 340.5,346.214 L340.5,366.786 C340.5,369.942 337.467,372.5 333.726,372.5 L179.274,372.5 C175.533,372.5 172.5,369.942 172.5,366.786 L172.5,346.214 C172.5,343.058 175.533,340.5 179.274,340.5 z" fill="#FFFFFF"/>
        <path d="M179.274,340.5 L333.726,340.5 C337.467,340.5 340.5,343.058 340.5,346.214 L340.5,366.786 C340.5,369.942 337.467,372.5 333.726,372.5 L179.274,372.5 C175.533,372.5 172.5,369.942 172.5,366.786 L172.5,346.214 C172.5,343.058 175.533,340.5 179.274,340.5 z" fill-opacity="0" stroke="#000000" stroke-width="1"/>
      </g>
      <g>
        <path d="M180.375,328.5 C180.375,328.5 209.25,332.5 256.5,332.5 C303.75,332.5 332.625,328.5 332.625,328.5 C336.974,328.5 340.5,331.186 340.5,334.5 L340.5,334.5 C340.5,337.814 336.974,340.5 332.625,340.5 L180.375,340.5 C176.026,340.5 172.5,337.814 172.5,334.5 L172.5,334.5 C172.5,331.186 176.026,328.5 180.375,328.5 z" fill="#90D3FF"/>
        <path d="M180.375,328.5 C180.375,328.5 209.25,332.5 256.5,332.5 C303.75,332.5 332.625,328.5 332.625,328.5 C336.974,328.5 340.5,331.186 340.5,334.5 L340.5,334.5 C340.5,337.814 336.974,340.5 332.625,340.5 L180.375,340.5 C176.026,340.5 172.5,337.814 172.5,334.5 L172.5,334.5 C172.5,331.186 176.026,328.5 180.375,328.5 z" fill-opacity="0" stroke="#000000" stroke-width="1"/>
      </g>
      <g>
        <path d="M182.31,380.5 L330.69,380.5 C331.69,380.5 332.5,381.022 332.5,381.667 L332.5,463.333 C332.5,463.978 331.69,464.5 330.69,464.5 L182.31,464.5 C181.31,464.5 180.5,463.978 180.5,463.333 L180.5,381.667 C180.5,381.022 181.31,380.5 182.31,380.5 z" fill="#FFFFFF"/>
        <path d="M182.31,380.5 L330.69,380.5 C331.69,380.5 332.5,381.022 332.5,381.667 L332.5,463.333 C332.5,463.978 331.69,464.5 330.69,464.5 L182.31,464.5 C181.31,464.5 180.5,463.978 180.5,463.333 L180.5,381.667 C180.5,381.022 181.31,380.5 182.31,380.5 z" fill-opacity="0" stroke="#000000" stroke-width="1"/>
      </g>
      <g>
        <path d="M176.438,372.5 L336.562,372.5 C338.737,372.5 340.5,373.395 340.5,374.5 L340.5,378.5 C340.5,379.605 338.737,380.5 336.562,380.5 L176.438,380.5 C174.263,380.5 172.5,379.605 172.5,378.5 L172.5,374.5 C172.5,373.395 174.263,372.5 176.438,372.5 z" fill="#7686B3"/>
        <path d="M176.438,372.5 L336.562,372.5 C338.737,372.5 340.5,373.395 340.5,374.5 L340.5,378.5 C340.5,379.605 338.737,380.5 336.562,380.5 L176.438,380.5 C174.263,380.5 172.5,379.605 172.5,378.5 L172.5,374.5 C172.5,373.395 174.263,372.5 176.438,372.5 z" fill-opacity="0" stroke="#000000" stroke-width="1"/>
      </g>
    </g>
  </g>
   <animateTransform
    xlink:href="#camilla"
    attributeName="transform"
    attributeType="XML"
    type="translate"
    from="0 auto"
    to="0 -60"
    dur="2s"
    begin="1s"
    fill="freeze"
    id="cam-anim"
    />
  <animateTransform
    xlink:href="#paciente"
    attributeName="transform"
    attributeType="XML"
    type="scale"
    from="1"
    to=".8"
    dur="1s"
    begin="cam-anim.begin + 2s"
    fill="freeze"
    id="pat-anim"  
    />
     <animateTransform
    xlink:href="#Cabezales"
    attributeName="transform"
    attributeType="XML"
    type="rotate"
    from="0 256 256"
    to="180 256 256"
    dur="4s"
    begin="cam-anim.begin + 3s"
    id="cab-anim"
    />
    
</svg>
