<?xml version="1.0" encoding="UTF-8"?>
<!DOCTYPE svg PUBLIC "-//W3C//DTD SVG 1.1//EN" "http://www.w3.org/Graphics/SVG/1.1/DTD/svg11.dtd">
<svg version="1.1" xmlns="http://www.w3.org/2000/svg" xmlns:xlink="http://www.w3.org/1999/xlink" x="0" y="0" width="512" height="512" viewBox="0, 0, 512, 512">
  <g id="Capa_1">
    <g>
      <g>
        <path d="M238.93,157.668 L274.07,157.668 L274.07,175.238 L238.93,175.238 L238.93,157.668 z" fill="#FFE967"/>
        <path d="M238.93,157.668 L274.07,157.668 L274.07,175.238 L238.93,175.238 L238.93,157.668 z" fill-opacity="0" stroke="#000000" stroke-width="3" stroke-linecap="round"/>
      </g>
      <g>
        <path d="M238.93,184.023 L274.07,184.023 L274.07,201.593 L238.93,201.593 L238.93,184.023 z" fill="#FFE967"/>
        <path d="M238.93,184.023 L274.07,184.023 L274.07,201.593 L238.93,201.593 L238.93,184.023 z" fill-opacity="0" stroke="#000000" stroke-width="3" stroke-linecap="round"/>
      </g>
      <g>
        <path d="M238.93,210.379 L274.07,210.379 L274.07,227.949 L238.93,227.949 L238.93,210.379 z" fill="#FFE967"/>
        <path d="M238.93,210.379 L274.07,210.379 L274.07,227.949 L238.93,227.949 L238.93,210.379 z" fill-opacity="0" stroke="#000000" stroke-width="3" stroke-linecap="round"/>
      </g>
      <g>
        <path d="M238.93,236.734 L274.07,236.734 L274.07,254.304 L238.93,254.304 L238.93,236.734 z" fill="#FFE967"/>
        <path d="M238.93,236.734 L274.07,236.734 L274.07,254.304 L238.93,254.304 L238.93,236.734 z" fill-opacity="0" stroke="#000000" stroke-width="3" stroke-linecap="round"/>
      </g>
      <g>
        <path d="M238.93,263.089 L274.07,263.089 L274.07,280.659 L238.93,280.659 L238.93,263.089 z" fill="#FFE967"/>
        <path d="M238.93,263.089 L274.07,263.089 L274.07,280.659 L238.93,280.659 L238.93,263.089 z" fill-opacity="0" stroke="#000000" stroke-width="3" stroke-linecap="round"/>
      </g>
      <g>
        <path d="M238.93,289.444 L274.07,289.444 L274.07,307.014 L238.93,307.014 L238.93,289.444 z" fill="#FFE967"/>
        <path d="M238.93,289.444 L274.07,289.444 L274.07,307.014 L238.93,307.014 L238.93,289.444 z" fill-opacity="0" stroke="#000000" stroke-width="3" stroke-linecap="round"/>
      </g>
      <g>
        <path d="M238.93,319.765 L274.07,319.765 L274.07,337.335 L238.93,337.335 L238.93,319.765 z" fill="#FFE967"/>
        <path d="M238.93,319.765 L274.07,319.765 L274.07,337.335 L238.93,337.335 L238.93,319.765 z" fill-opacity="0" stroke="#000000" stroke-width="3" stroke-linecap="round"/>
      </g>
      <g>
        <path d="M238.93,346.547 L274.07,346.547 L274.07,364.117 L238.93,364.117 L238.93,346.547 z" fill="#FFE967"/>
        <path d="M238.93,346.547 L274.07,346.547 L274.07,364.117 L238.93,364.117 L238.93,346.547 z" fill-opacity="0" stroke="#000000" stroke-width="3" stroke-linecap="round"/>
      </g>
      <g>
        <path d="M214.144,174.537 C169.34,189.471 124.536,234.275 124.536,234.275 C120.802,241.742 132.003,238.009 132.003,238.009 C169.34,193.205 221.611,178.27 221.611,178.27 C221.611,170.803 214.144,174.537 214.144,174.537 z" fill="#FFE967"/>
        <path d="M214.144,174.537 C169.34,189.471 124.536,234.275 124.536,234.275 C120.802,241.742 132.003,238.009 132.003,238.009 C169.34,193.205 221.611,178.27 221.611,178.27 C221.611,170.803 214.144,174.537 214.144,174.537 z" fill-opacity="0" stroke="#000000" stroke-width="3" stroke-linecap="round"/>
      </g>
      <g>
        <path d="M298.856,174.537 C343.66,189.471 388.464,234.275 388.464,234.275 C392.198,241.742 380.997,238.009 380.997,238.009 C343.66,193.205 291.389,178.27 291.389,178.27 C291.389,170.803 298.856,174.537 298.856,174.537 z" fill="#FFE967"/>
        <path d="M298.856,174.537 C343.66,189.471 388.464,234.275 388.464,234.275 C392.198,241.742 380.997,238.009 380.997,238.009 C343.66,193.205 291.389,178.27 291.389,178.27 C291.389,170.803 298.856,174.537 298.856,174.537 z" fill-opacity="0" stroke="#000000" stroke-width="3" stroke-linecap="round"/>
      </g>
      <g>
        <path d="M214.144,196.939 C169.34,211.873 124.536,256.677 124.536,256.677 C120.802,264.144 132.003,260.411 132.003,260.411 C169.34,215.607 221.611,200.672 221.611,200.672 C221.611,193.205 214.144,196.939 214.144,196.939 z" fill="#FFE967"/>
        <path d="M214.144,196.939 C169.34,211.873 124.536,256.677 124.536,256.677 C120.802,264.144 132.003,260.411 132.003,260.411 C169.34,215.607 221.611,200.672 221.611,200.672 C221.611,193.205 214.144,196.939 214.144,196.939 z" fill-opacity="0" stroke="#000000" stroke-width="3" stroke-linecap="round"/>
      </g>
      <g>
        <path d="M298.856,196.939 C343.66,211.873 388.464,256.677 388.464,256.677 C392.198,264.144 380.997,260.411 380.997,260.411 C343.66,215.607 291.389,200.672 291.389,200.672 C291.389,193.205 298.856,196.939 298.856,196.939 z" fill="#FFE967"/>
        <path d="M298.856,196.939 C343.66,211.873 388.464,256.677 388.464,256.677 C392.198,264.144 380.997,260.411 380.997,260.411 C343.66,215.607 291.389,200.672 291.389,200.672 C291.389,193.205 298.856,196.939 298.856,196.939 z" fill-opacity="0" stroke="#000000" stroke-width="3" stroke-linecap="round"/>
      </g>
      <g>
        <path d="M215.041,224.101 C176.958,236.795 138.874,274.878 138.874,274.878 C135.701,281.226 145.222,278.052 145.222,278.052 C176.958,239.969 221.388,227.274 221.388,227.274 C221.388,220.927 215.041,224.101 215.041,224.101 z" fill="#FFE967"/>
        <path d="M215.041,224.101 C176.958,236.795 138.874,274.878 138.874,274.878 C135.701,281.226 145.222,278.052 145.222,278.052 C176.958,239.969 221.388,227.274 221.388,227.274 C221.388,220.927 215.041,224.101 215.041,224.101 z" fill-opacity="0" stroke="#000000" stroke-width="3" stroke-linecap="round"/>
      </g>
      <g>
        <path d="M297.959,224.101 C336.042,236.795 374.126,274.878 374.126,274.878 C377.299,281.226 367.778,278.052 367.778,278.052 C336.042,239.969 291.612,227.274 291.612,227.274 C291.612,220.927 297.959,224.101 297.959,224.101 z" fill="#FFE967"/>
        <path d="M297.959,224.101 C336.042,236.795 374.126,274.878 374.126,274.878 C377.299,281.226 367.778,278.052 367.778,278.052 C336.042,239.969 291.612,227.274 291.612,227.274 C291.612,220.927 297.959,224.101 297.959,224.101 z" fill-opacity="0" stroke="#000000" stroke-width="3" stroke-linecap="round"/>
      </g>
      <g>
        <path d="M215.938,251.263 C184.575,261.717 153.213,293.08 153.213,293.08 C150.599,298.307 158.44,295.694 158.44,295.694 C184.575,264.331 221.165,253.877 221.165,253.877 C221.165,248.65 215.938,251.263 215.938,251.263 z" fill="#FFE967"/>
        <path d="M215.938,251.263 C184.575,261.717 153.213,293.08 153.213,293.08 C150.599,298.307 158.44,295.694 158.44,295.694 C184.575,264.331 221.165,253.877 221.165,253.877 C221.165,248.65 215.938,251.263 215.938,251.263 z" fill-opacity="0" stroke="#000000" stroke-width="3" stroke-linecap="round"/>
      </g>
      <g>
        <path d="M297.062,251.263 C328.425,261.717 359.787,293.08 359.787,293.08 C362.401,298.307 354.56,295.694 354.56,295.694 C328.425,264.331 291.835,253.877 291.835,253.877 C291.835,248.65 297.062,251.263 297.062,251.263 z" fill="#FFE967"/>
        <path d="M297.062,251.263 C328.425,261.717 359.787,293.08 359.787,293.08 C362.401,298.307 354.56,295.694 354.56,295.694 C328.425,264.331 291.835,253.877 291.835,253.877 C291.835,248.65 297.062,251.263 297.062,251.263 z" fill-opacity="0" stroke="#000000" stroke-width="3" stroke-linecap="round"/>
      </g>
      <g>
        <path d="M216.536,276.839 C189.654,285.799 162.772,312.682 162.772,312.682 C160.531,317.162 167.252,314.922 167.252,314.922 C189.654,288.04 221.016,279.079 221.016,279.079 C221.016,274.598 216.536,276.839 216.536,276.839 z" fill="#FFE967"/>
        <path d="M216.536,276.839 C189.654,285.799 162.772,312.682 162.772,312.682 C160.531,317.162 167.252,314.922 167.252,314.922 C189.654,288.04 221.016,279.079 221.016,279.079 C221.016,274.598 216.536,276.839 216.536,276.839 z" fill-opacity="0" stroke="#000000" stroke-width="3" stroke-linecap="round"/>
      </g>
      <g>
        <path d="M295.87,276.839 C322.752,285.799 349.634,312.682 349.634,312.682 C351.874,317.162 345.154,314.922 345.154,314.922 C322.752,288.04 291.389,279.079 291.389,279.079 C291.389,274.598 295.87,276.839 295.87,276.839 z" fill="#FFE967"/>
        <path d="M295.87,276.839 C322.752,285.799 349.634,312.682 349.634,312.682 C351.874,317.162 345.154,314.922 345.154,314.922 C322.752,288.04 291.389,279.079 291.389,279.079 C291.389,274.598 295.87,276.839 295.87,276.839 z" fill-opacity="0" stroke="#000000" stroke-width="3" stroke-linecap="round"/>
      </g>
      <g>
        <path d="M256.5,21.5 C283.185,21.5 304.818,42.149 304.818,67.621 C304.707,81.152 298.496,94.272 287.824,102.678 C290.613,108.93 291.367,115.77 291.64,122.528 C291.64,146.787 275.907,148.883 256.5,148.883 C237.093,148.883 221.36,146.787 221.36,122.528 C221.456,115.782 222.47,108.905 225.175,102.678 C214.321,94.273 208.54,81.146 208.182,67.621 C208.182,42.149 229.815,21.5 256.5,21.5 z M282.855,114.503 C276.815,120.36 258.696,120.36 258.696,120.36 C258.696,120.36 240.577,120.36 234.537,114.503 L234.537,132.073 L282.855,132.073 L282.855,114.503 z M241.126,69.818 C235.061,69.818 230.145,74.734 230.145,80.799 C230.145,86.864 235.061,91.78 241.126,91.78 C247.191,91.78 252.107,86.864 252.107,80.799 C252.107,74.734 247.191,69.818 241.126,69.818 z M275.596,69.858 C275.053,69.852 274.519,69.973 273.985,70.06 C268.053,71.321 264.266,77.152 265.527,83.084 C266.788,89.017 272.619,92.804 278.552,91.543 C284.484,90.282 288.271,84.45 287.01,78.518 C285.744,73.756 282.209,70.506 277.282,69.864 C276.185,69.867 276.747,69.869 275.596,69.858 z" fill="#FFE967"/>
        <path d="M256.5,21.5 C283.185,21.5 304.818,42.149 304.818,67.621 C304.707,81.152 298.496,94.272 287.824,102.678 C290.613,108.93 291.367,115.77 291.64,122.528 C291.64,146.787 275.907,148.883 256.5,148.883 C237.093,148.883 221.36,146.787 221.36,122.528 C221.456,115.782 222.47,108.905 225.175,102.678 C214.321,94.273 208.54,81.146 208.182,67.621 C208.182,42.149 229.815,21.5 256.5,21.5 z M282.855,114.503 C276.815,120.36 258.696,120.36 258.696,120.36 C258.696,120.36 240.577,120.36 234.537,114.503 L234.537,132.073 L282.855,132.073 L282.855,114.503 z M241.126,69.818 C235.061,69.818 230.145,74.734 230.145,80.799 C230.145,86.864 235.061,91.78 241.126,91.78 C247.191,91.78 252.107,86.864 252.107,80.799 C252.107,74.734 247.191,69.818 241.126,69.818 z M275.596,69.858 C275.053,69.852 274.519,69.973 273.985,70.06 C268.053,71.321 264.266,77.152 265.527,83.084 C266.788,89.017 272.619,92.804 278.552,91.543 C284.484,90.282 288.271,84.45 287.01,78.518 C285.744,73.756 282.209,70.506 277.282,69.864 C276.185,69.867 276.747,69.869 275.596,69.858 z" fill-opacity="0" stroke="#000000" stroke-width="3" stroke-linecap="round"/>
      </g>
      <g>
        <g>
          <path d="M238.723,374.132 L273.863,374.132 L265.285,435.627 L247.715,435.627 L238.723,374.132 z" fill="#FFE967"/>
          <path d="M238.723,374.132 L273.863,374.132 L265.285,435.627 L247.715,435.627 L238.723,374.132 z" fill-opacity="0" stroke="#000000" stroke-width="3" stroke-linecap="round"/>
        </g>
        <g>
          <path d="M200.631,350.958 C215.579,352.536 228.402,363.74 238.723,374.132 L243.322,409.272 C243.323,409.272 221.017,394.085 212.829,411.372 C205.55,423.654 220.562,426.707 220.562,426.707 C220.562,426.707 247.715,426.909 256.5,431.301 L255.59,438.211 C246.939,441.512 246.947,442.305 245.582,451.404 C233.3,452.313 222.837,455.498 202.821,470.055 C183.715,464.596 194.135,431.392 180.324,420.417 C147.993,368.783 182.05,350.263 200.631,350.958 z M213.739,433.207 C204.443,433.207 201.456,438.829 201.456,440.713 C201.456,442.598 198.886,458.682 208.182,458.682 L217.378,449.584 C242.398,447.764 238.93,438.731 238.93,436.846 C238.93,434.962 223.292,437.301 213.739,433.207 z" fill="#FFE967"/>
          <path d="M200.631,350.958 C215.579,352.536 228.402,363.74 238.723,374.132 L243.322,409.272 C243.323,409.272 221.017,394.085 212.829,411.372 C205.55,423.654 220.562,426.707 220.562,426.707 C220.562,426.707 247.715,426.909 256.5,431.301 L255.59,438.211 C246.939,441.512 246.947,442.305 245.582,451.404 C233.3,452.313 222.837,455.498 202.821,470.055 C183.715,464.596 194.135,431.392 180.324,420.417 C147.993,368.783 182.05,350.263 200.631,350.958 z M213.739,433.207 C204.443,433.207 201.456,438.829 201.456,440.713 C201.456,442.598 198.886,458.682 208.182,458.682 L217.378,449.584 C242.398,447.764 238.93,438.731 238.93,436.846 C238.93,434.962 223.292,437.301 213.739,433.207 z" fill-opacity="0" stroke="#000000" stroke-width="3" stroke-linecap="round"/>
        </g>
        <g>
          <path d="M312.369,350.958 C297.421,352.536 284.185,363.74 273.863,374.132 L269.678,409.272 C269.677,409.272 291.983,394.085 300.171,411.372 C307.45,423.654 292.438,426.707 292.438,426.707 C292.438,426.707 265.285,426.909 256.5,431.301 L257.41,438.211 C266.061,441.512 266.053,442.305 267.418,451.404 C279.7,452.313 290.163,455.498 310.179,470.055 C329.285,464.596 318.865,431.392 332.676,420.417 C365.007,368.783 330.95,350.263 312.369,350.958 z M299.261,433.207 C308.557,433.207 311.544,438.829 311.544,440.713 C311.544,442.598 314.113,458.682 304.818,458.682 L295.622,449.584 C270.602,447.764 274.07,438.731 274.07,436.846 C274.07,434.962 289.708,437.301 299.261,433.207 z" fill="#FFE967"/>
          <path d="M312.369,350.958 C297.421,352.536 284.185,363.74 273.863,374.132 L269.678,409.272 C269.677,409.272 291.983,394.085 300.171,411.372 C307.45,423.654 292.438,426.707 292.438,426.707 C292.438,426.707 265.285,426.909 256.5,431.301 L257.41,438.211 C266.061,441.512 266.053,442.305 267.418,451.404 C279.7,452.313 290.163,455.498 310.179,470.055 C329.285,464.596 318.865,431.392 332.676,420.417 C365.007,368.783 330.95,350.263 312.369,350.958 z M299.261,433.207 C308.557,433.207 311.544,438.829 311.544,440.713 C311.544,442.598 314.113,458.682 304.818,458.682 L295.622,449.584 C270.602,447.764 274.07,438.731 274.07,436.846 C274.07,434.962 289.708,437.301 299.261,433.207 z" fill-opacity="0" stroke="#000000" stroke-width="3" stroke-linecap="round" stroke-linejoin="round"/>
        </g>
      </g>
      <g>
        <path d="M184.231,425.612 C190.296,425.612 195.212,430.529 195.212,436.593 C195.212,442.658 190.296,447.575 184.231,447.575 C182.75,447.5 183.475,447.593 182.055,447.303 L177.642,451.967 L179.79,461.332 L177.204,465.895 L173.042,491.5 L159.864,491.5 L159.864,453.727 L165.796,451.597 L168.23,448.707 L174.202,440.944 C173.478,439.605 173.325,438.085 173.249,436.593 C173.249,430.529 178.166,425.612 184.231,425.612 z" fill="#FFE967"/>
        <path d="M184.231,425.612 C190.296,425.612 195.212,430.529 195.212,436.593 C195.212,442.658 190.296,447.575 184.231,447.575 C182.75,447.5 183.475,447.593 182.055,447.303 L177.642,451.967 L179.79,461.332 L177.204,465.895 L173.042,491.5 L159.864,491.5 L159.864,453.727 L165.796,451.597 L168.23,448.707 L174.202,440.944 C173.478,439.605 173.325,438.085 173.249,436.593 C173.249,430.529 178.166,425.612 184.231,425.612 z" fill-opacity="0" stroke="#000000" stroke-width="3" stroke-linecap="round" stroke-linejoin="round"/>
      </g>
      <g>
        <path d="M328.977,425.612 C322.912,425.612 317.995,430.529 317.995,436.593 C317.995,442.658 322.912,447.575 328.977,447.575 C330.457,447.5 329.732,447.593 331.152,447.303 L335.565,451.967 L333.418,461.332 L336.003,465.895 L340.165,491.5 L353.343,491.5 L353.343,453.727 L347.411,451.597 L344.977,448.707 L339.006,440.944 C339.729,439.605 339.883,438.085 339.958,436.593 C339.958,430.529 335.041,425.612 328.977,425.612 z" fill="#FFE967"/>
        <path d="M328.977,425.612 C322.912,425.612 317.995,430.529 317.995,436.593 C317.995,442.658 322.912,447.575 328.977,447.575 C330.457,447.5 329.732,447.593 331.152,447.303 L335.565,451.967 L333.418,461.332 L336.003,465.895 L340.165,491.5 L353.343,491.5 L353.343,453.727 L347.411,451.597 L344.977,448.707 L339.006,440.944 C339.729,439.605 339.883,438.085 339.958,436.593 C339.958,430.529 335.041,425.612 328.977,425.612 z" fill-opacity="0" stroke="#000000" stroke-width="3" stroke-linecap="round" stroke-linejoin="round"/>
      </g>
    </g>
  </g>
</svg>
