<?xml version="1.0" encoding="UTF-8"?>
<!DOCTYPE svg PUBLIC "-//W3C//DTD SVG 1.1//EN" "http://www.w3.org/Graphics/SVG/1.1/DTD/svg11.dtd">
<svg version="1.1" xmlns="http://www.w3.org/2000/svg" xmlns:xlink="http://www.w3.org/1999/xlink" x="0" y="0" width="512" height="512" viewBox="0, 0, 512, 512">
  <g id="Capa_6">
    <path d="M256,16 C273.535,16 303.006,18 300,18 C302.926,19.394 304.981,27.422 305.837,30.017 C307.417,34.81 308.959,39.931 310.316,44.779 C313.922,57.665 317.204,70.634 320.379,83.632 C340.139,90.722 358.174,101.816 374.311,115.133 C400.295,107.05 387.713,110.799 412.038,103.824 C420.399,101.512 429.094,98.841 437.818,98.32 C438.6,98.355 439.524,98.278 440.114,98.895 C438.617,96.302 455.114,120.875 463.846,136 C472.614,151.186 485.617,177.708 484.114,175.105 C482.57,181.935 470.587,192.822 466.081,197.428 C456.72,206.998 447.141,216.349 437.456,225.589 C439.287,235.624 439.871,245.818 440,256 C440.004,263.833 439.501,271.664 438.522,279.435 C438.162,282.29 437.653,285.124 437.218,287.968 C450.166,299.994 463.233,311.938 475.357,324.809 C477.948,327.559 483.848,332.955 484.114,336.895 C485.611,334.302 472.579,360.875 463.846,376 C455.079,391.186 438.611,415.708 440.114,413.105 C437.917,414.866 428.979,412.607 426.789,412.151 C421.847,411.124 416.642,409.899 411.765,408.649 C398.784,405.324 385.894,401.677 373.032,397.923 C357.006,411.376 338.54,421.719 318.92,428.902 C314.744,446.645 311.066,464.574 305.591,481.983 C305.2,483.227 302.419,493.409 300,494 C302.994,494 273.465,496 256,496 C238.465,496 208.994,494 212,494 C209.074,492.605 207.019,484.579 206.163,481.983 C204.583,477.19 203.041,472.069 201.684,467.221 C198.078,454.335 194.795,441.366 191.62,428.368 C171.896,421.284 153.876,410.225 137.764,396.929 C120.312,402.261 102.899,407.889 85.088,411.939 C83.382,412.327 73.555,414.852 71.886,413.105 C73.383,415.698 56.886,391.125 48.154,376 C39.386,360.814 26.383,334.292 27.886,336.895 C29.43,330.065 41.413,319.178 45.919,314.572 C55.28,305.002 64.859,295.652 74.544,286.411 C72.713,276.376 72.129,266.182 72,256 C71.996,248.167 72.499,240.336 73.478,232.565 C73.838,229.71 74.347,226.876 74.782,224.032 C61.834,212.005 48.767,200.062 36.643,187.191 C34.052,184.441 28.152,179.045 27.886,175.105 C26.389,177.698 39.421,151.125 48.154,136 C56.921,120.814 73.389,96.292 71.886,98.895 C72.444,98.258 73.452,98.347 74.2,98.289 C76.383,98.326 78.557,98.623 80.705,99 C91.711,100.932 102.581,103.861 113.346,106.804 C131.496,111.864 122.971,109.415 138.934,114.105 C154.969,100.639 173.445,90.286 193.079,83.098 C197.256,65.355 200.934,47.426 206.409,30.017 C206.8,28.773 209.581,18.59 212,18 C209.006,18 238.535,16 256,16 z M256,176 C211.817,176 176,211.817 176,256 C176,300.183 211.817,336 256,336 C300.183,336 336,300.183 336,256 C336,211.817 300.183,176 256,176 z" fill="#0137CF" stroke="#000" stroke-width="6" stroke-linecap="round"/>
    <animateTransform
    xlink:href="#Capa_6"
    attributeName="transform"
    attributeType="XML"
    type="rotate"
    from="0 256 256"
    to="360 256 256"
		dur = "30s"
		repeatCount = "indefinite"
    />
	</g>
</svg>
