<?xml version="1.0" encoding="UTF-8"?>
<!DOCTYPE svg PUBLIC "-//W3C//DTD SVG 1.1//EN" "http://www.w3.org/Graphics/SVG/1.1/DTD/svg11.dtd">
<svg version="1.1" xmlns="http://www.w3.org/2000/svg" xmlns:xlink="http://www.w3.org/1999/xlink" x="0" y="0" width="128" height="128" viewBox="0, 0, 128, 128">
  <g id="Path">
    <g>
      <g>
        <path d="M37.809,34.301 C37.215,34.301 26.761,30.884 27.867,32.023 C29.108,33.301 26.761,47.764 26.761,47.764 C31.214,46.004 36.981,48.386 36.981,48.386" fill="#1E90FF"/>
        <path d="M37.809,34.301 C37.215,34.301 26.761,30.884 27.867,32.023 C29.108,33.301 26.761,47.764 26.761,47.764 C31.214,46.004 36.981,48.386 36.981,48.386" fill-opacity="0" stroke="#000000" stroke-width="2" stroke-linecap="round" stroke-linejoin="round"/>
      </g>
      <g>
        <path d="M37.809,34.301 C37.215,34.301 26.761,30.884 27.867,32.023 C29.108,33.301 26.761,47.764 26.761,47.764 C31.214,46.004 36.981,48.386 36.981,48.386" fill="#1E90FF"/>
        <path d="M37.809,34.301 C37.215,34.301 26.761,30.884 27.867,32.023 C29.108,33.301 26.761,47.764 26.761,47.764 C31.214,46.004 36.981,48.386 36.981,48.386" fill-opacity="0" stroke="#000000" stroke-width="2" stroke-linecap="round" stroke-linejoin="round"/>
      </g>
    </g>
    <g>
      <g>
        <path d="M49.563,9.796 C49.563,9.796 49.752,12.404 49.752,12.404 C59.18,11.051 62.757,12.742 67.194,16.267 C73.368,21.174 73.85,29.392 73.85,29.392 L59.868,31.233 C56.347,28.955 54.172,29.599 53.033,30.301 C49.267,32.624 48.768,37.108 50.182,42.034 C51.597,46.961 55.603,55.521 57.489,55.908 L39.855,70.381 C22.125,34.249 36.972,18.857 38.91,17.137 C39.071,16.981 39.246,16.839 39.394,16.671 C40.244,15.705 41.035,14.46 40.649,13.101 C41.46,12.244 42.651,11.67 43.823,11.238 C43.961,11.187 44.783,10.831 45.038,10.858 C45.227,10.955 45.509,13.949 45.509,13.949 C45.509,13.949 46.075,13.756 46.075,13.756 C46.075,13.756 45.981,10.472 45.981,10.472 z" fill="#F92A2A"/>
        <path d="M49.563,9.796 C49.563,9.796 49.752,12.404 49.752,12.404 C59.18,11.051 62.757,12.742 67.194,16.267 C73.368,21.174 73.85,29.392 73.85,29.392 L59.868,31.233 C56.347,28.955 54.172,29.599 53.033,30.301 C49.267,32.624 48.768,37.108 50.182,42.034 C51.597,46.961 55.603,55.521 57.489,55.908 L39.855,70.381 C22.125,34.249 36.972,18.857 38.91,17.137 C39.071,16.981 39.246,16.839 39.394,16.671 C40.244,15.705 41.035,14.46 40.649,13.101 C41.46,12.244 42.651,11.67 43.823,11.238 C43.961,11.187 44.783,10.831 45.038,10.858 C45.227,10.955 45.509,13.949 45.509,13.949 C45.509,13.949 46.075,13.756 46.075,13.756 C46.075,13.756 45.981,10.472 45.981,10.472 z" fill-opacity="0" stroke="#000000" stroke-width="2" stroke-linecap="round"/>
      </g>
      <g>
        <path d="M49.563,9.796 C49.563,9.796 49.752,12.404 49.752,12.404 C59.18,11.051 62.757,12.742 67.194,16.267 C73.368,21.174 73.85,29.392 73.85,29.392 L59.868,31.233 C56.347,28.955 54.172,29.599 53.033,30.301 C49.267,32.624 48.768,37.108 50.182,42.034 C51.597,46.961 55.603,55.521 57.489,55.908 L39.855,70.381 C22.125,34.249 36.972,18.857 38.91,17.137 C39.071,16.981 39.246,16.839 39.394,16.671 C40.244,15.705 41.035,14.46 40.649,13.101 C41.46,12.244 42.651,11.67 43.823,11.238 C43.961,11.187 44.783,10.831 45.038,10.858 C45.227,10.955 45.509,13.949 45.509,13.949 C45.509,13.949 46.075,13.756 46.075,13.756 C46.075,13.756 45.981,10.472 45.981,10.472 z" fill="#F92A2A"/>
        <path d="M49.563,9.796 C49.563,9.796 49.752,12.404 49.752,12.404 C59.18,11.051 62.757,12.742 67.194,16.267 C73.368,21.174 73.85,29.392 73.85,29.392 L59.868,31.233 C56.347,28.955 54.172,29.599 53.033,30.301 C49.267,32.624 48.768,37.108 50.182,42.034 C51.597,46.961 55.603,55.521 57.489,55.908 L39.855,70.381 C22.125,34.249 36.972,18.857 38.91,17.137 C39.071,16.981 39.246,16.839 39.394,16.671 C40.244,15.705 41.035,14.46 40.649,13.101 C41.46,12.244 42.651,11.67 43.823,11.238 C43.961,11.187 44.783,10.831 45.038,10.858 C45.227,10.955 45.509,13.949 45.509,13.949 C45.509,13.949 46.075,13.756 46.075,13.756 C46.075,13.756 45.981,10.472 45.981,10.472 z" fill-opacity="0" stroke="#000000" stroke-width="2" stroke-linecap="round"/>
      </g>
    </g>
    <g>
      <path d="M42.055,61.642 C38.223,58.639 23.414,68.374 27.453,84.219 C30.123,94.697 40.318,110.172 60.282,113.528 C109.579,121.813 115.688,108.309 108.543,94.576 C92.594,63.92 66.289,50.664 54.379,55.325" fill="#F92A2A"/>
      <path d="M42.055,61.642 C38.223,58.639 23.414,68.374 27.453,84.219 C30.123,94.697 40.318,110.172 60.282,113.528 C109.579,121.813 115.688,108.309 108.543,94.576 C92.594,63.92 66.289,50.664 54.379,55.325" fill-opacity="0" stroke="#442FB5" stroke-width="0.25"/>
    </g>
    <path d="M42.055,61.642 C38.223,58.639 23.414,68.374 27.453,84.219 C30.123,94.696 40.318,110.172 60.282,113.528 C109.579,121.813 115.688,108.309 108.543,94.576 C92.594,63.92 66.289,50.664 54.379,55.325" fill-opacity="0" stroke="#000000" stroke-width="2" stroke-linecap="round"/>
    <g>
      <g>
        <path d="M76.633,29.126 C76.633,29.126 77.474,40.665 77.474,40.665 C77.474,40.665 70.45,40.657 69.274,40.772 C65.564,41.137 61.652,45.992 66.703,55.635 C67.843,57.81 56.239,54.486 56.239,54.486 C56.239,54.486 42.257,33.763 54.872,31.391 C70.943,28.368 76.633,29.126 76.633,29.126 z" fill="#1E90FF"/>
        <path d="M76.633,29.126 C76.633,29.126 77.474,40.665 77.474,40.665 C77.474,40.665 70.45,40.657 69.274,40.772 C65.564,41.137 61.652,45.992 66.703,55.635 C67.843,57.81 56.239,54.486 56.239,54.486 C56.239,54.486 42.257,33.763 54.872,31.391 C70.943,28.368 76.633,29.126 76.633,29.126 z" fill-opacity="0" stroke="#000000" stroke-width="2" stroke-linecap="round"/>
      </g>
      <g>
        <path d="M76.633,29.126 C76.633,29.126 77.474,40.665 77.474,40.665 C77.474,40.665 70.45,40.657 69.274,40.772 C65.564,41.137 61.652,45.992 66.703,55.635 C67.843,57.81 56.239,54.486 56.239,54.486 C56.239,54.486 42.257,33.763 54.872,31.391 C70.943,28.368 76.633,29.126 76.633,29.126 z" fill="#1E90FF"/>
        <path d="M76.633,29.126 C76.633,29.126 77.474,40.665 77.474,40.665 C77.474,40.665 70.45,40.657 69.274,40.772 C65.564,41.137 61.652,45.992 66.703,55.635 C67.843,57.81 56.239,54.486 56.239,54.486 C56.239,54.486 42.257,33.763 54.872,31.391 C70.943,28.368 76.633,29.126 76.633,29.126 z" fill-opacity="0" stroke="#000000" stroke-width="2" stroke-linecap="round"/>
      </g>
    </g>
  </g>
</svg>
