<?xml version="1.0" encoding="UTF-8"?>
<!DOCTYPE svg PUBLIC "-//W3C//DTD SVG 1.1//EN" "http://www.w3.org/Graphics/SVG/1.1/DTD/svg11.dtd">
<svg version="1.1" xmlns="http://www.w3.org/2000/svg" xmlns:xlink="http://www.w3.org/1999/xlink" x="0" y="0" width="512" height="512" viewBox="0, 0, 512, 512">
  <g id="primary">
    <path d="M352,56 C377.841,56 403.506,67.381 422.916,87.602 C443.635,109.187 455.825,139.167 456.502,173.657 C457.272,212.926 443.29,256.494 413.387,301.779 C372.303,362.922 315.838,411.963 256.041,454.194 C196.21,411.405 139.807,361.553 98.621,300.103 C68.707,254.629 54.729,211.149 55.498,172.158 C56.174,137.939 68.338,108.344 89.044,87.081 C108.422,67.183 134.09,56 160,56 C188.028,56 210.467,65.817 226.021,83.315 C239.511,99.288 246.977,118.826 247.909,139.729 L248,144 C248,154.667 264,154.667 264,144 C264,121.151 271.769,99.302 285.979,83.315 C301.533,65.817 323.972,56 352,56 z" fill="#1E3050"/>
    <g>
      <path d="M464,200 z" fill="#1E3050"/>
      <path d="M464,200 z" fill-opacity="0" stroke="#F438D6" stroke-width="1"/>
    </g>
  </g>
  <g id="secondary">
    <path d="M352,34 C384.008,34 415.347,47.947 438.787,72.367 C463.738,98.361 477.725,133.815 478.497,173.225 C479.375,218.004 463.452,265.885 431.745,313.902 L431.647,314.049 C392.676,372.048 339.356,422.287 268.732,472.164 L255.961,481.184 L243.243,472.089 C173.167,421.972 119.528,370.812 80.346,312.352 L80.241,312.194 C48.54,264.004 32.624,216.221 33.503,171.724 C34.276,132.532 48.276,97.412 73.283,71.732 C96.695,47.692 127.996,34 160,34 C193.652,34 222.315,46.032 242.464,68.699 L242.649,68.907 L242.828,69.12 C248.003,74.927 251.961,81.595 255.912,88.246 C259.548,81.122 264.396,74.779 269.536,68.699 C289.685,46.032 318.348,34 352,34 L352,34 z M352,56 C323.972,56 301.533,65.817 285.979,83.315 C271.769,99.302 264,121.151 264,144 C264,154.667 248,154.667 248,144 L247.909,139.729 C246.977,118.826 239.511,99.288 226.021,83.315 C210.467,65.817 188.028,56 160,56 C134.09,56 108.422,67.183 89.044,87.081 C68.338,108.344 56.174,137.939 55.498,172.158 C54.729,211.149 68.707,254.629 98.621,300.103 C139.807,361.553 196.21,411.405 256.041,454.194 C315.838,411.963 372.303,362.922 413.387,301.779 C443.29,256.494 457.272,212.926 456.501,173.657 C455.825,139.167 443.635,109.187 422.916,87.602 C403.506,67.381 377.841,56 352,56 z" fill="#F438D6"/>
  </g>
</svg>
