<?xml version="1.0" encoding="UTF-8"?>
<!DOCTYPE svg PUBLIC "-//W3C//DTD SVG 1.1//EN" "http://www.w3.org/Graphics/SVG/1.1/DTD/svg11.dtd">
<svg version="1.1" xmlns="http://www.w3.org/2000/svg" xmlns:xlink="http://www.w3.org/1999/xlink" x="0" y="0" width="512" height="512" viewBox="0, 0, 512, 512">
  <g id="Capa_2">
    <g opacity="1">
      <path d="M303.109,196.487 C355.306,113.221 364.288,172.679 363.591,173.289 C347.021,187.788 373.533,200.215 366.076,208.915 C344.803,233.734 377.261,225.485 361.52,238.741 C331.693,228.799 306.05,228.252 296.067,271.882 C284.882,320.764 283.92,449.647 283.92,449.647 C283.92,449.647 277.84,449.647 277.84,449.647 C277.84,449.647 274.111,230.042 303.109,196.487 z" fill="#BCD900" stroke="#000000" stroke-width="2"/>
      <path d="M303.109,196.487 C355.306,113.221 364.288,172.679 363.591,173.289 C347.021,187.788 373.533,200.215 366.076,208.915 C344.803,233.734 377.261,225.485 361.52,238.741 C331.693,228.799 306.05,228.252 296.067,271.882 C284.882,320.764 283.92,449.647 283.92,449.647 C283.92,449.647 277.84,449.647 277.84,449.647 C277.84,449.647 274.111,230.042 303.109,196.487 z" fill-opacity="0" stroke="#000000" stroke-width="4"/>
    </g>
    <g opacity="1">
      <path d="M209.891,196.487 C157.694,113.221 148.712,172.679 149.409,173.289 C165.979,187.788 139.467,200.215 146.924,208.915 C168.197,233.734 135.739,225.485 151.48,238.741 C181.307,228.799 206.95,228.252 216.933,271.882 C228.118,320.764 229.08,449.647 229.08,449.647 C229.08,449.647 235.16,449.647 235.16,449.647 C235.16,449.647 238.889,230.042 209.891,196.487 z" fill="#BCD900" stroke="#000000" stroke-width="4"/>
      <path d="M209.891,196.487 C157.694,113.221 148.712,172.679 149.409,173.289 C165.979,187.788 139.467,200.215 146.924,208.915 C168.197,233.734 135.739,225.485 151.48,238.741 C181.307,228.799 206.95,228.252 216.933,271.882 C228.118,320.764 229.08,449.647 229.08,449.647 C229.08,449.647 235.16,449.647 235.16,449.647 C235.16,449.647 238.889,230.042 209.891,196.487 z" fill-opacity="0" stroke="#000000" stroke-width="2"/>
    </g>
  </g>
  <g id="Path">
    <path d="M364.461,62.853 C393.503,63.401 417.39,85.565 429.205,110.905 C454.841,163.788 479.776,214.413 443.871,280.495 C404.102,381.988 307.58,339.734 303.852,290.852 C303.553,271.042 309.26,250.055 321.829,234.461 C334.662,230.192 348.675,234.352 361.02,238.241 C376.761,224.985 344.303,233.234 365.576,208.415 C373.033,199.715 346.521,187.288 363.091,172.789 C363.141,170.56 362.47,168.152 361.808,166.05 C358.733,156.299 352.014,148.529 341.217,153.001 C331.715,156.936 324.692,165.7 318.342,173.387 C300.752,161.665 298.204,138.196 301.832,118.979 C303.864,109.626 307.743,101.032 312.991,93.055 C320.166,82.148 330.422,73.746 341.549,67.153 C349.432,64.172 356.134,63.198 364.461,62.853 z" fill="#BD4464" stroke="#000000" stroke-width="6"/>
    <path d="M147.539,62.853 C118.497,63.401 94.61,85.565 82.795,110.905 C57.159,163.788 32.224,214.413 68.129,280.495 C107.898,381.988 204.42,339.734 208.148,290.852 C208.447,271.042 202.74,250.055 190.171,234.461 C177.338,230.192 163.325,234.352 150.98,238.241 C135.239,224.985 167.697,233.234 146.424,208.415 C138.967,199.715 165.479,187.288 148.909,172.789 C148.859,170.56 149.53,168.152 150.192,166.05 C153.267,156.299 159.986,148.529 170.783,153.001 C180.285,156.936 187.308,165.7 193.658,173.387 C211.248,161.665 213.796,138.196 210.168,118.979 C208.136,109.626 204.257,101.032 199.009,93.055 C191.834,82.148 181.578,73.746 170.451,67.153 C162.568,64.172 155.866,63.198 147.539,62.853 z" fill="#BD4464" stroke="#000000" stroke-width="6"/>
  </g>
</svg>
