<?xml version="1.0" encoding="UTF-8"?>
<!DOCTYPE svg PUBLIC "-//W3C//DTD SVG 1.1//EN" "http://www.w3.org/Graphics/SVG/1.1/DTD/svg11.dtd">
<svg version="1.1" xmlns="http://www.w3.org/2000/svg" xmlns:xlink="http://www.w3.org/1999/xlink" x="0" y="0" width="512" height="512" viewBox="0, 0, 512, 512">
  <g id="Capa_1">
    <g>
      <path d="M175.861,73.008 C178.779,73.769 181.808,74.158 184.616,75.29 C215.933,87.92 230.899,136.737 235.921,167.972 C231.675,176.846 225.546,184.459 219.039,191.57 C195.46,216.399 185.458,227.078 185.354,227.04 C185.25,227.002 196.329,240.196 196.373,239.682 L224.44,215.49 L239.025,203.155 C239.21,213.06 239.243,207.881 238.851,218.691 C233.871,308.845 218.947,318.275 233.16,376.563 C244.897,424.699 222.845,434.495 199.014,430.003 C153.995,421.517 94.003,448.436 93.73,447.952 C24.371,324.755 91.682,137.125 143.526,86.52 C150.112,80.159 157.841,74.916 166.825,73.285 C169.794,72.746 172.849,73.101 175.861,73.008 z" fill="#006CAA"/>
      <path d="M175.861,73.008 C178.779,73.769 181.808,74.158 184.616,75.29 C215.933,87.92 230.899,136.737 235.921,167.972 C231.675,176.846 225.546,184.459 219.039,191.57 C195.46,216.399 185.458,227.078 185.354,227.04 C185.25,227.002 196.329,240.196 196.373,239.682 L224.44,215.49 L239.025,203.155 C239.21,213.06 239.243,207.881 238.851,218.691 C233.871,308.845 218.947,318.275 233.16,376.563 C244.897,424.699 222.845,434.495 199.014,430.003 C153.995,421.517 94.003,448.436 93.73,447.952 C24.371,324.755 91.682,137.125 143.526,86.52 C150.112,80.159 157.841,74.916 166.825,73.285 C169.794,72.746 172.849,73.101 175.861,73.008 z" fill-opacity="0" stroke="#000000" stroke-width="6"/>
    </g>
    <g>
      <path d="M336.229,73.051 C348.931,72.029 359.378,77.993 368.565,86.563 C420.409,137.167 487.72,324.798 418.361,447.994 C418.088,448.479 377.833,412.504 340.13,439.428 C347.6,409.648 349.378,396.594 352.224,379.461 C362.098,320.005 278.22,308.888 273.24,218.734 C272.916,209.791 272.881,213.102 272.961,208.806 C290.34,223.504 278.283,213.264 308.98,239.724 C309.025,240.238 320.104,227.044 320,227.082 C319.896,227.12 309.895,216.441 286.315,191.612 C281.964,187.226 278.291,182.215 274.717,177.135 C279.825,143.666 293.391,89.078 327.475,75.332 C330.283,74.2 333.311,73.811 336.229,73.051 z" fill="#006CAA"/>
      <path d="M336.229,73.051 C348.931,72.029 359.378,77.993 368.565,86.563 C420.409,137.167 487.72,324.798 418.361,447.994 C418.088,448.479 377.833,412.504 340.13,439.428 C347.6,409.648 349.378,396.594 352.224,379.461 C362.098,320.005 278.22,308.888 273.24,218.734 C272.916,209.791 272.881,213.102 272.961,208.806 C290.34,223.504 278.283,213.264 308.98,239.724 C309.025,240.238 320.104,227.044 320,227.082 C319.896,227.12 309.895,216.441 286.315,191.612 C281.964,187.226 278.291,182.215 274.717,177.135 C279.825,143.666 293.391,89.078 327.475,75.332 C330.283,74.2 333.311,73.811 336.229,73.051 z" fill-opacity="0" stroke="#000000" stroke-width="6"/>
    </g>
    <g>
      <path d="M235.79,43.649 L269.474,43.649 L269.474,50.743 L235.79,50.743 L235.79,43.649 z" fill="#000000"/>
      <path d="M235.79,43.649 L269.474,43.649 L269.474,50.743 L235.79,50.743 L235.79,43.649 z" fill-opacity="0" stroke="#000000" stroke-width="2"/>
    </g>
    <g>
      <path d="M235.79,61.384 L269.474,61.384 L269.474,68.478 L235.79,68.478 L235.79,61.384 z" fill="#000000"/>
      <path d="M235.79,61.384 L269.474,61.384 L269.474,68.478 L235.79,68.478 L235.79,61.384 z" fill-opacity="0" stroke="#000000" stroke-width="2"/>
    </g>
    <g>
      <path d="M235.789,79.119 L269.474,79.119 L269.474,86.212 L235.789,86.212 L235.789,79.119 z" fill="#000000"/>
      <path d="M235.789,79.119 L269.474,79.119 L269.474,86.212 L235.789,86.212 L235.789,79.119 z" fill-opacity="0" stroke="#000000" stroke-width="2"/>
    </g>
    <g>
      <path d="M235.79,96.853 L269.474,96.853 L269.474,103.947 L235.79,103.947 L235.79,96.853 z" fill="#000000"/>
      <path d="M235.79,96.853 L269.474,96.853 L269.474,103.947 L235.79,103.947 L235.79,96.853 z" fill-opacity="0" stroke="#000000" stroke-width="2"/>
    </g>
    <g>
      <path d="M235.79,114.588 L269.474,114.588 L269.474,121.682 L235.79,121.682 L235.79,114.588 z" fill="#000000"/>
      <path d="M235.79,114.588 L269.474,114.588 L269.474,121.682 L235.79,121.682 L235.79,114.588 z" fill-opacity="0" stroke="#000000" stroke-width="2"/>
    </g>
    <g>
      <path d="M235.79,132.323 L269.474,132.323 L269.474,139.416 L235.79,139.416 L235.79,132.323 z" fill="#000000"/>
      <path d="M235.79,132.323 L269.474,132.323 L269.474,139.416 L235.79,139.416 L235.79,132.323 z" fill-opacity="0" stroke="#000000" stroke-width="2"/>
    </g>
  </g>
  <g id="Capa_3">
    <g>
      <path d="M266.105,139.416 L266.105,159.69 C266.105,159.69 269.474,173.878 286.315,191.612 C309.895,216.441 319.896,227.12 320,227.082 C320.104,227.044 309.025,240.238 308.98,239.724 C290.413,223.419 271.486,207.553 252.631,191.613 L224.349,215.532 L196.282,239.724 C196.238,240.238 185.159,227.044 185.263,227.082 C185.367,227.12 195.368,216.441 218.947,191.612 C235.789,173.878 239.158,159.69 239.158,159.69 L239.158,139.416 L266.105,139.416 z" fill="#006CAA"/>
      <path d="M266.105,139.416 L266.105,159.69 C266.105,159.69 269.474,173.878 286.315,191.612 C309.895,216.441 319.896,227.12 320,227.082 C320.104,227.044 309.025,240.238 308.98,239.724 C290.413,223.419 271.486,207.553 252.631,191.613 L224.349,215.532 L196.282,239.724 C196.238,240.238 185.159,227.044 185.263,227.082 C185.367,227.12 195.368,216.441 218.947,191.612 C235.789,173.878 239.158,159.69 239.158,159.69 L239.158,139.416 L266.105,139.416 z" fill-opacity="0" stroke="#000000" stroke-width="3"/>
    </g>
    <g>
      <path d="M266.105,121.682 L266.105,132.323 L239.158,132.323 L239.158,121.682 L266.105,121.682 z" fill="#006CAA"/>
      <path d="M266.105,121.682 L266.105,132.323 L239.158,132.323 L239.158,121.682 L266.105,121.682 z" fill-opacity="0" stroke="#000000" stroke-width="3"/>
    </g>
    <g>
      <path d="M266.105,103.947 L266.105,114.588 L239.158,114.588 L239.158,103.947 L266.105,103.947 z" fill="#006CAA"/>
      <path d="M266.105,103.947 L266.105,114.588 L239.158,114.588 L239.158,103.947 L266.105,103.947 z" fill-opacity="0" stroke="#000000" stroke-width="3"/>
    </g>
    <g>
      <path d="M266.105,86.212 L266.105,96.853 L239.158,96.853 L239.158,86.212 L266.105,86.212 z" fill="#006CAA"/>
      <path d="M266.105,86.212 L266.105,96.853 L239.158,96.853 L239.158,86.212 L266.105,86.212 z" fill-opacity="0" stroke="#000000" stroke-width="3"/>
    </g>
    <g>
      <path d="M266.105,68.478 L266.105,79.119 L239.158,79.119 L239.158,68.478 L266.105,68.478 z" fill="#006CAA"/>
      <path d="M266.105,68.478 L266.105,79.119 L239.158,79.119 L239.158,68.478 L266.105,68.478 z" fill-opacity="0" stroke="#000000" stroke-width="3"/>
    </g>
    <g>
      <path d="M266.105,50.743 L266.105,61.384 L239.158,61.384 L239.158,50.743 L266.105,50.743 z" fill="#006CAA"/>
      <path d="M266.105,50.743 L266.105,61.384 L239.158,61.384 L239.158,50.743 L266.105,50.743 z" fill-opacity="0" stroke="#000000" stroke-width="3"/>
    </g>
    <g>
      <path d="M266.105,32 L266.105,43.649 L239.158,43.649 L239.158,32 L266.105,32 z" fill="#006CAA"/>
      <path d="M266.105,32 L266.105,43.649 L239.158,43.649 L239.158,32 L266.105,32 z" fill-opacity="0" stroke="#000000" stroke-width="3"/>
    </g>
  </g>
</svg>
