<?xml version="1.0" encoding="UTF-8"?>
<!DOCTYPE svg PUBLIC "-//W3C//DTD SVG 1.1//EN" "http://www.w3.org/Graphics/SVG/1.1/DTD/svg11.dtd">
<svg version="1.1" xmlns="http://www.w3.org/2000/svg" xmlns:xlink="http://www.w3.org/1999/xlink" x="0" y="0" width="512" height="512" viewBox="0, 0, 512, 512">
  <g id="Capa_2">
    <path d="M270.713,138.369" fill="#F42A79"/>
    <path d="M194.675,32 C190.828,79.282 198.635,139.364 246.153,164.14 C293.671,188.916 238.455,288.341 202.595,312.798 C146.812,340.633 155.224,323.886 131.317,316.927 C107.41,313.448 87.759,312.798 64,349.962 C64,350.064 87.759,370.508 87.759,370.609 C87.759,370.711 91.325,328.207 155.077,366.48 C254.073,444.938 368.908,428.42 396.627,329.315 C428.306,271.504 464.11,257.26 440.203,163.318 C419.995,83.911 317.43,27.871 273.872,106.329 C254.073,122.846 227.468,61.678 230.314,32" fill="#FF9937"/>
  </g>
  <g id="Path"/>
</svg>
