<?xml version="1.0" encoding="UTF-8"?>
<!DOCTYPE svg PUBLIC "-//W3C//DTD SVG 1.1//EN" "http://www.w3.org/Graphics/SVG/1.1/DTD/svg11.dtd">
<svg version="1.1" xmlns="http://www.w3.org/2000/svg" xmlns:xlink="http://www.w3.org/1999/xlink" x="0" y="0" width="512" height="512" viewBox="0, 0, 512, 512">
  <g id="Capa_2">
    <g>
      <g>
        <g>
          <g>
            <path d="M138.932,98.309 C177.592,98.309 208.932,128.516 208.932,165.778 L208.932,246.309 L68.932,246.309 L68.932,165.778 C68.932,128.516 100.272,98.309 138.932,98.309 z" fill="#3B1FAA"/>
            <path d="M138.932,98.309 C177.592,98.309 208.932,128.516 208.932,165.778 L208.932,246.309 L68.932,246.309 L68.932,165.778 C68.932,128.516 100.272,98.309 138.932,98.309 z" fill-opacity="0" stroke="#000000" stroke-width="8"/>
          </g>
          <g>
            <path d="M138.932,394.309 C100.272,394.309 68.932,364.101 68.932,326.839 L68.932,246.309 L208.932,246.309 L208.932,326.839 C208.932,364.101 177.592,394.309 138.932,394.309 z" fill="#FF71AE"/>
            <path d="M138.932,394.309 C100.272,394.309 68.932,364.101 68.932,326.839 L68.932,246.309 L208.932,246.309 L208.932,326.839 C208.932,364.101 177.592,394.309 138.932,394.309 z" fill-opacity="0" stroke="#000000" stroke-width="8"/>
          </g>
        </g>
        <g>
          <path d="M84.421,181.366" fill-opacity="0" stroke="#FFFFFF" stroke-width="2"/>
          <path d="M139.443,230.309 C130.671,230.309 123.56,206.132 123.56,176.309 C123.56,146.485 130.671,122.309 139.443,122.309 C148.214,122.309 155.325,146.485 155.325,176.309 C155.325,206.132 148.214,230.309 139.443,230.309 z" fill-opacity="0" stroke="#FFFFFF" stroke-width="2"/>
          <path d="M177.626,214.492 C171.424,220.695 149.3,208.627 128.212,187.539 C107.124,166.451 95.056,144.327 101.259,138.125 C107.461,131.922 129.585,143.99 150.673,165.078 C171.762,186.166 183.829,208.29 177.626,214.492 z" fill-opacity="0" stroke="#FFFFFF" stroke-width="2"/>
          <path d="M193.443,176.309 C193.443,185.08 169.266,192.191 139.443,192.191 C109.619,192.191 85.443,185.08 85.443,176.309 C85.443,167.537 109.619,160.426 139.443,160.426 C169.266,160.426 193.443,167.537 193.443,176.309 z" fill-opacity="0" stroke="#FFFFFF" stroke-width="2"/>
          <path d="M177.626,138.125 C183.829,144.327 171.762,166.451 150.673,187.539 C129.585,208.627 107.461,220.695 101.259,214.492 C95.056,208.29 107.124,186.166 128.212,165.078 C149.3,143.99 171.424,131.922 177.626,138.125 z" fill-opacity="0" stroke="#FFFFFF" stroke-width="2"/>
        </g>
      </g>
      <g>
        <path d="M427.018,200.861 C451.347,230.905 447.595,274.271 418.636,297.721 L356.052,348.4 L267.948,239.6 L330.531,188.92 C359.49,165.47 402.688,170.816 427.018,200.861 z" fill="#D11D00"/>
        <path d="M427.018,200.861 C451.347,230.905 447.595,274.271 418.636,297.721 L356.052,348.4 L267.948,239.6 L330.531,188.92 C359.49,165.47 402.688,170.816 427.018,200.861 z" fill-opacity="0" stroke="#000000" stroke-width="8"/>
      </g>
      <g>
        <path d="M196.982,387.139 C172.653,357.095 176.405,313.729 205.364,290.279 L267.948,239.6 L356.052,348.4 L293.469,399.08 C264.51,422.53 221.312,417.184 196.982,387.139 z" fill="#FFBAB8" fill-opacity="0.5"/>
        <path d="M196.982,387.139 C172.653,357.095 176.405,313.729 205.364,290.279 L267.948,239.6 L356.052,348.4 L293.469,399.08 C264.51,422.53 221.312,417.184 196.982,387.139 z" fill-opacity="0" stroke="#000000" stroke-width="8"/>
      </g>
      <g>
        <path d="M328.165,210.767" fill-opacity="0" stroke="#FFFFFF" stroke-width="2"/>
        <path d="M324.756,284.328 C319.236,277.511 333.55,256.77 356.727,238.002 C379.904,219.233 403.168,209.545 408.688,216.361 C414.208,223.178 399.894,243.919 376.717,262.688 C353.54,281.456 330.276,291.145 324.756,284.328 z" fill-opacity="0" stroke="#FFFFFF" stroke-width="2"/>
        <path d="M361.077,304.049 C352.354,303.132 347.809,278.345 350.926,248.685 C354.044,219.025 363.643,195.724 372.366,196.641 C381.09,197.557 385.635,222.345 382.517,252.005 C379.4,281.665 369.801,304.966 361.077,304.049 z" fill-opacity="0" stroke="#FFFFFF" stroke-width="2"/>
        <path d="M400.705,292.311 C393.888,297.831 373.147,283.517 354.379,260.34 C335.61,237.163 325.922,213.899 332.739,208.379 C339.555,202.859 360.296,217.173 379.065,240.35 C397.833,263.527 407.522,286.79 400.705,292.311 z" fill-opacity="0" stroke="#FFFFFF" stroke-width="2"/>
        <path d="M420.426,255.989 C419.509,264.713 394.722,269.257 365.062,266.14 C335.402,263.023 312.101,253.424 313.018,244.7 C313.935,235.977 338.722,231.432 368.382,234.549 C398.042,237.667 421.343,247.266 420.426,255.989 z" fill-opacity="0" stroke="#FFFFFF" stroke-width="2"/>
      </g>
    </g>
  </g>
  <g id="Path"/>
</svg>
