<?xml version="1.0" encoding="UTF-8"?>
<!DOCTYPE svg PUBLIC "-//W3C//DTD SVG 1.1//EN" "http://www.w3.org/Graphics/SVG/1.1/DTD/svg11.dtd">
<svg version="1.1" xmlns="http://www.w3.org/2000/svg" xmlns:xlink="http://www.w3.org/1999/xlink" x="0" y="0" width="512" height="512" viewBox="0, 0, 512, 512">
  <g id="Capa_1">
    <g opacity="0.6">
      <path d="M403.268,109.2 C352.268,220.418 388.234,384.104 430.639,401.146 C430.639,401.146 302.634,429.988 250.852,430.144 C199.07,430.3 69.762,401.146 69.762,401.146 C112.167,383.983 151.891,219.135 100.891,107.129 L403.268,107.129 z" fill="#E9E0C8"/>
      <path d="M403.268,109.2 C352.268,220.418 388.234,384.104 430.639,401.146 C430.639,401.146 302.634,429.988 250.852,430.144 C199.07,430.3 69.762,401.146 69.762,401.146 C112.167,383.983 151.891,219.135 100.891,107.129 L403.268,107.129 z" fill-opacity="0" stroke="#000000" stroke-width="6" stroke-linecap="round" stroke-linejoin="round"/>
    </g>
    <g>
      <path d="M211.553,240.747 C194.275,237.989 191.347,270.363 190.225,285.134 C189.591,293.485 194.433,322.551 200.889,329.636 C211.422,341.197 215.462,351.389 239.266,346.953 C249.415,345.062 247.763,331.695 260.087,333.241 C272.42,334.788 265.206,344.408 284.488,346.524 C289.073,347.028 294.097,346.217 298.152,344.239 C309.859,338.528 318.867,297.411 317.785,287.009 C313.519,246.025 301.355,235.378 299.454,233.974 C287.618,225.235 285.083,236.448 281.855,248.339 C274.32,307.319 274.775,307.459 255.581,309.158 C217.347,303.042 228.831,243.506 211.553,240.747 z" fill="#FFDF00"/>
      <path d="M211.553,240.747 C194.275,237.989 191.347,270.363 190.225,285.134 C189.591,293.485 194.433,322.551 200.889,329.636 C211.422,341.197 215.462,351.389 239.266,346.953 C249.415,345.062 247.763,331.695 260.087,333.241 C272.42,334.788 265.206,344.408 284.488,346.524 C289.073,347.028 294.097,346.217 298.152,344.239 C309.859,338.528 318.867,297.411 317.785,287.009 C313.519,246.025 301.355,235.378 299.454,233.974 C287.618,225.235 285.083,236.448 281.855,248.339 C274.32,307.319 274.775,307.459 255.581,309.158 C217.347,303.042 228.831,243.506 211.553,240.747 z" fill-opacity="0" stroke="#000000" stroke-width="4"/>
    </g>
    <g>
      <path d="M417.974,52.6 C409.275,95.995 404.304,137.523 333.471,166.106 C315.913,173.192 252.686,172.734 252.686,172.734 C252.686,172.734 189.459,173.192 171.901,166.106 C101.068,137.523 95.683,104.796 82.427,52.6 L417.974,52.6 z" fill="#E9E0C8"/>
      <path d="M417.974,52.6 C409.275,95.995 404.304,137.523 333.471,166.106 C315.913,173.192 252.686,172.734 252.686,172.734 C252.686,172.734 189.459,173.192 171.901,166.106 C101.068,137.523 95.683,104.796 82.427,52.6 L417.974,52.6 z" fill-opacity="0" stroke="#000000" stroke-width="6" stroke-linecap="round" stroke-linejoin="round"/>
    </g>
    <g>
      <g>
        <path d="M336.049,97.349 C316.709,98.96 311.797,112.053 283.668,115.884 C261.032,118.967 254.021,116.992 254.021,116.992 C254.021,116.992 247.011,118.967 224.375,115.884 C196.245,112.053 191.334,98.96 171.993,97.349 C188.255,91.674 201.275,80.657 211.958,73.312 C218.508,68.809 241.335,66.636 251.684,68.305 C262.033,66.636 284.861,68.809 291.411,73.312 C302.094,80.657 315.113,91.674 331.376,97.349" fill="#FC2F2F"/>
        <path d="M336.049,97.349 C316.709,98.96 311.797,112.053 283.668,115.884 C261.032,118.967 254.021,116.992 254.021,116.992 C254.021,116.992 247.011,118.967 224.375,115.884 C196.245,112.053 191.334,98.96 171.993,97.349 C188.255,91.674 201.275,80.657 211.958,73.312 C218.508,68.809 241.335,66.636 251.684,68.305 C262.033,66.636 284.861,68.809 291.411,73.312 C302.094,80.657 315.113,91.674 331.376,97.349" fill-opacity="0" stroke="#000000" stroke-width="6" stroke-linecap="round"/>
      </g>
      <path d="M215.964,93.595 C246.009,97.267 289.408,91.592 289.408,91.592" fill-opacity="0" stroke="#000000" stroke-width="6"/>
    </g>
    <path d="M201.524,400.408 C242.121,414.078 310.888,402.065 310.474,402.065" fill-opacity="0" stroke="#000000" stroke-width="6" stroke-linecap="round"/>
  </g>
</svg>
