<?xml version="1.0" encoding="UTF-8"?>
<!DOCTYPE svg PUBLIC "-//W3C//DTD SVG 1.1//EN" "http://www.w3.org/Graphics/SVG/1.1/DTD/svg11.dtd">
<svg version="1.1" xmlns="http://www.w3.org/2000/svg" xmlns:xlink="http://www.w3.org/1999/xlink" x="0" y="0" width="512" height="512" viewBox="0, 0, 512, 512">
  <g id="Capa_1">
    <g id="Facebook_Logo_Primary">
      <path d="M480,256 C480,132.288 379.712,32 256,32 C132.288,32 32,132.288 32,256 C32,361.051 104.321,449.197 201.887,473.403 L201.887,324.451 L155.696,324.451 L155.696,256 L201.887,256 L201.887,226.504 C201.887,150.262 236.39,114.924 311.242,114.924 C325.433,114.924 349.92,117.706 359.937,120.489 L359.937,182.54 C354.65,181.984 345.467,181.705 334.059,181.705 C297.329,181.705 283.137,195.618 283.137,231.792 L283.137,256 L356.304,256 L343.734,324.451 L283.137,324.451 L283.137,478.359 C394.049,464.963 480,370.525 480,256" fill="#0866FF"/>
      <path d="M343.734,324.451 L356.304,256 L283.138,256 L283.138,231.791 C283.138,195.618 297.328,181.706 334.058,181.706 C345.467,181.706 354.649,181.983 359.936,182.54 L359.936,120.489 C349.919,117.706 325.432,114.923 311.241,114.923 C236.391,114.923 201.887,150.262 201.887,226.505 L201.887,256 L155.696,256 L155.696,324.451 L201.887,324.451 L201.887,473.404 C219.218,477.703 237.339,480 256,480 C265.187,480 274.24,479.434 283.138,478.359 L283.138,324.451 z" fill="#FFFFFF"/>
    </g>
  </g>
</svg>
