<?xml version="1.0" encoding="UTF-8"?>
<!DOCTYPE svg PUBLIC "-//W3C//DTD SVG 1.1//EN" "http://www.w3.org/Graphics/SVG/1.1/DTD/svg11.dtd">
<svg version="1.1" xmlns="http://www.w3.org/2000/svg" xmlns:xlink="http://www.w3.org/1999/xlink" x="0" y="0" width="512" height="512" viewBox="0, 0, 512, 512">
  <g id="secondary">
    <path d="M184.523,416.722 L216.606,341.862 C219.422,335.292 217.551,327.652 212.019,323.127 L171.503,289.976 C195.547,238.726 237.633,196.06 289.977,171.503 L323.127,212.018 C327.653,217.55 335.292,219.42 341.862,216.605 L416.721,184.522 C423.857,181.464 427.778,173.735 426.032,166.17 L409.993,96.656 C408.326,89.432 401.882,84.222 394.361,84.222 C223.191,84.222 84.222,222.936 84.222,394.361 C84.222,401.831 89.378,408.313 96.657,409.993 L166.171,426.033 C173.735,427.778 181.464,423.857 184.523,416.722" fill="#1ED779"/>
  </g>
</svg>
