<?xml version="1.0" encoding="UTF-8" standalone="no"?>
<svg
   version="1.1"
   x="0"
   y="0"
   width="512"
   height="512"
   viewBox="0 0 512 512"
   id="svg1"
   xmlns="http://www.w3.org/2000/svg"
   xmlns:svg="http://www.w3.org/2000/svg">
  <defs
     id="defs1" />
  <g id="secondary" stroke="">
    <path
       d="m 97.333,506.966 c -129.874,-129.874 -129.681,-340.252 0,-469.933 5.698,-5.698 14.527,-6.632 21.263,-2.422 l 64.817,40.513 a 17.187,17.187 0 0 1 6.849,20.958 l -32.408,81.021 a 17.188,17.188 0 0 1 -17.669,10.719 l -55.81,-5.58 c -21.051,58.261 -20.612,122.471 0,179.515 l 55.811,-5.581 a 17.188,17.188 0 0 1 17.669,10.719 l 32.408,81.022 a 17.188,17.188 0 0 1 -6.849,20.958 l -64.817,40.513 A 17.19,17.19 0 0 1 97.333,506.966 Z M 247.126,95.473 c 11.832,20.047 11.832,45.008 0,65.055 -3.95,6.693 -13.108,7.959 -18.718,2.581 l -5.975,-5.726 c -3.911,-3.748 -4.793,-9.622 -2.261,-14.41 a 32.063,32.063 0 0 0 0,-29.945 c -2.533,-4.788 -1.65,-10.662 2.261,-14.41 l 5.975,-5.726 c 5.61,-5.378 14.768,-4.112 18.718,2.581 z M 338.913,4.286 c 60.14,71.604 60.092,175.882 0,247.428 -4.474,5.327 -12.53,5.746 -17.552,0.933 l -5.798,-5.557 c -4.56,-4.371 -4.977,-11.529 -0.93,-16.379 49.687,-59.538 49.646,-145.933 0,-205.422 -4.047,-4.85 -3.631,-12.008 0.93,-16.379 l 5.798,-5.557 c 5.022,-4.813 13.078,-4.394 17.552,0.933 z m -45.972,44.941 c 36.05,46.322 36.108,111.149 0,157.546 -4.39,5.641 -12.697,6.251 -17.856,1.304 l -5.818,-5.579 c -4.4,-4.219 -4.998,-11.095 -1.285,-15.931 26.536,-34.564 26.534,-82.572 0,-117.134 -3.713,-4.836 -3.115,-11.711 1.285,-15.931 l 5.818,-5.579 c 5.159,-4.947 13.466,-4.337 17.856,1.304 z" fill="#1ed779" id="path1" />
  </g>
</svg>
