<?xml version="1.0" encoding="UTF-8"?>
<!DOCTYPE svg PUBLIC "-//W3C//DTD SVG 1.1//EN" "http://www.w3.org/Graphics/SVG/1.1/DTD/svg11.dtd">
<svg version="1.1" xmlns="http://www.w3.org/2000/svg" xmlns:xlink="http://www.w3.org/1999/xlink" x="0" y="0" width="512" height="512" viewBox="0, 0, 512, 512">
  <g id="secondary" stroke="">
    <path d="M412.9,97.1 C371,55.1 315.2,32 255.9,32 C133.5,32 33.9,131.6 33.9,254 C33.9,293.1 44.1,331.3 63.5,365 L32,480 L149.7,449.1 C182.1,466.8 218.6,476.1 255.8,476.1 L255.9,476.1 C378.2,476.1 480,376.5 480,254.1 C480,194.8 454.8,139.1 412.9,97.1 z M255.9,438.7 C222.7,438.7 190.2,429.8 161.9,413 L155.2,409 L85.4,427.3 L104,359.2 L99.6,352.2 C81.1,322.8 71.4,288.9 71.4,254 C71.4,152.3 154.2,69.5 256,69.5 C305.3,69.5 351.6,88.7 386.4,123.6 C421.2,158.5 442.6,204.8 442.5,254.1 C442.5,355.9 357.6,438.7 255.9,438.7 z M357.1,300.5 C351.6,297.7 324.3,284.3 319.2,282.5 C314.1,280.6 310.4,279.7 306.7,285.3 C303,290.9 292.4,303.3 289.1,307.1 C285.9,310.8 282.6,311.3 277.1,308.5 C244.5,292.2 223.1,279.4 201.6,242.5 C195.9,232.7 207.3,233.4 217.9,212.2 C219.7,208.5 218.8,205.3 217.4,202.5 C216,199.7 204.9,172.4 200.3,161.3 C195.8,150.5 191.2,152 187.8,151.8 C184.6,151.6 180.9,151.6 177.2,151.6 C173.5,151.6 167.5,153 162.4,158.5 C157.3,164.1 143,177.5 143,204.8 C143,232.1 162.9,258.5 165.6,262.2 C168.4,265.9 204.7,321.9 260.4,346 C295.6,361.2 309.4,362.5 327,359.9 C337.7,358.3 359.8,346.5 364.4,333.5 C369,320.5 369,309.4 367.6,307.1 C366.3,304.6 362.6,303.2 357.1,300.5 z" fill="#1ED779"/>
  </g>
</svg>
