<?xml version="1.0" encoding="UTF-8"?>
<!DOCTYPE svg PUBLIC "-//W3C//DTD SVG 1.1//EN" "http://www.w3.org/Graphics/SVG/1.1/DTD/svg11.dtd">
<svg version="1.1" xmlns="http://www.w3.org/2000/svg" xmlns:xlink="http://www.w3.org/1999/xlink" x="0" y="0" width="512" height="512" viewBox="0, 0, 512, 512">
  <g id="Capa_2">
    <g>
      <path d="M256,480 C132.288,480 32,379.712 32,256 C32,132.288 132.288,32 256,32 C379.712,32 480,132.288 480,256 C480,379.712 379.712,480 256,480 z" fill="#FFFFFF"/>
      <path d="M409.306,178.973 C405.603,165.198 394.783,154.378 381.008,150.688 C356.076,144.006 256,144.006 256,144.006 C256,144.006 155.924,144.006 130.992,150.688 C117.217,154.378 106.397,165.198 102.694,178.973 C96.012,203.917 96.012,256 96.012,256 C96.012,256 96.012,308.083 102.694,333.027 C106.397,346.802 117.217,357.622 130.992,361.312 C155.924,367.994 256,367.994 256,367.994 C256,367.994 356.076,367.994 381.008,361.312 C394.783,357.622 405.603,346.802 409.306,333.027 C415.988,308.083 415.988,256 415.988,256 C415.988,256 415.963,203.917 409.306,178.973 z" fill="#FF0000"/>
      <path d="M223.963,303.994 L307.11,256 L223.963,208.006 L223.963,303.994 z" fill="#FFFFFF"/>
    </g>
  </g>
</svg>
